<?xml version="1.0" standalone="no"?><!DOCTYPE svg PUBLIC "-//W3C//DTD SVG 1.1//EN" "http://www.w3.org/Graphics/SVG/1.1/DTD/svg11.dtd"><svg t="1699303708838" class="icon" viewBox="0 0 1024 1024" version="1.1" xmlns="http://www.w3.org/2000/svg" p-id="1554" xmlns:xlink="http://www.w3.org/1999/xlink" width="200" height="200"><path d="M541.73696 484.12672L176.00512 16.82432c-4.29056-5.5808-11.02848-8.73472-18.04288-8.73472H47.22688c-9.59488 0-14.8992 11.02848-9.03168 18.4832l380.20096 485.7856L38.1952 998.12352c-5.86752 7.44448-0.5632 18.4832 9.03168 18.4832h110.73536c7.0144 0 13.75232-3.29728 18.04288-8.73472l365.73184-467.15904c13.03552-16.76288 13.03552-39.96672 0-56.58624z m435.49696 0L611.50208 16.82432c-4.29056-5.5808-11.02848-8.73472-18.04288-8.73472H482.7136c-9.59488 0-14.8992 11.02848-9.02144 18.4832l380.20096 485.7856-380.20096 485.76512c-5.87776 7.44448-0.57344 18.4832 9.02144 18.4832h110.73536c7.0144 0 13.75232-3.29728 18.04288-8.73472l365.73184-467.15904c13.056-16.76288 13.056-39.96672 0.01024-56.58624z m0 0" fill="#2C2C2C" p-id="1555"></path></svg>