<?xml version="1.0" standalone="no"?><!DOCTYPE svg PUBLIC "-//W3C//DTD SVG 1.1//EN" "http://www.w3.org/Graphics/SVG/1.1/DTD/svg11.dtd"><svg t="1699303715642" class="icon" viewBox="0 0 1024 1024" version="1.1" xmlns="http://www.w3.org/2000/svg" p-id="1710" xmlns:xlink="http://www.w3.org/1999/xlink" width="200" height="200"><path d="M165.7344 512.34816L549.39648 22.13888c5.92896-7.51616 0.57344-18.64704-9.10336-18.64704H428.544c-7.08608 0-13.8752 3.328-18.21696 8.81664L41.2672 483.87072c-13.1584 16.77312-13.1584 40.33536 0 57.09824l369.05984 471.40864c4.34176 5.64224 11.13088 8.81664 18.21696 8.81664h111.74912c9.68704 0 15.03232-11.13088 9.10336-18.64704L165.7344 512.34816z m439.45984 0L988.85632 22.13888c5.92896-7.51616 0.58368-18.64704-9.10336-18.64704H868.00384c-7.08608 0-13.8752 3.328-18.21696 8.81664L480.72704 483.87072c-13.1584 16.77312-13.1584 40.33536 0 57.09824l369.05984 471.40864c4.34176 5.64224 11.13088 8.81664 18.21696 8.81664h111.74912c9.68704 0 15.03232-11.13088 9.10336-18.64704L605.19424 512.34816z m0 0" fill="#2C2C2C" p-id="1711"></path></svg>